# xmcd
#
# Track frame offsets:
#	150
#	17692
#	33112
#	49885
#	65767
#	83795
#	98717
#	116215
#	129662
#	157190
#	174335
#	188772
#	204387
#	218925
#
# Disc length: 3112
#
# Revision: 1
# Processed by: cddbd v1.5.1PL0 Copyright (c) Steve Scherf et al.
# Submitted via: VisiTrax 2.9.3.171 - For more info visit www.synapsa.com
# Normalized: r0:DSETVAR1
#
DISCID=c30c260e
DTITLE=Various Artist - Mr Music Country 9-99
DYEAR=1900
DGENRE=
TTITLE0=Larry Kingston - Luther
TTITLE1=George Jones - You Never Know Just How Good You've Got It
TTITLE2=Karen Staley - Half Over You
TTITLE3=Chad Brock - Unbreak My Heart
TTITLE4=Bill Anderson with Roy Clark, Eddy Arnold, Jean Shepard and Steve Wariner - The Tips Of My Fingers
TTITLE5=Karen Flynn - Honkytonkyfied
TTITLE6=Jivin' Jake Jern - Every Song On The Radio
TTITLE7=Ingela Söderlund - Head over Heals
TTITLE8=Confederate Railroad - Queen Of Memphis
TTITLE9=Travis Tritt - I'm All The Man
TTITLE10=Marsha Britton - He's Gone Crazy
TTITLE11=Nea McCoy - The Shake
TTITLE12=T Jae Christina - Marriage On The Rocks
TTITLE13=Hermann Lammers Meyer with Johnny Bush - The Last Country Song
EXTD=
EXTT0=
EXTT1=
EXTT2=
EXTT3=
EXTT4=
EXTT5=
EXTT6=
EXTT7=
EXTT8=
EXTT9=
EXTT10=
EXTT11=
EXTT12=
EXTT13=
PLAYORDER=
